<svg xmlns="http://www.w3.org/2000/svg" 
xmlns:xlink="http://www.w3.org/1999/xlink" 
version="1.1" x="0px" y="0px" viewBox="0 0 100 125" 
enable-background="new 0 0 100 100" 
xml:space="preserve">
<g><g>
<circle cx="69.518" cy="16.266" r="12.107"/>
<path d="M74.302,52.848c-0.534-0.284-3.714-1.97-6.849-3.434c2.302-3.919,4.095-10.453,5.304-15.975    
c0.394-1.805-0.748-3.587-2.552-3.982c-1.809-0.389-3.589,0.747-3.983,2.553c-1.114,5.092-2.728,10.294-3.967,13.031   
 c-1.537-2.962-3.261-8.965-4.093-11.872c-0.152-0.528-0.299-1.036-0.441-1.528c0.025-1.532-0.338-3.089-1.149-4.518    
 c-2.421-4.267-7.845-5.767-12.115-3.341c-0.785,0.445-19.26,11.152-20.14,30.991c-0.193,4.322,2.734,8.054,6.788,9.03    
 c0.818,0.363,1.753,0.483,2.689,0.254c0.054-0.014,0.106-0.024,0.159-0.037c0.845-0.072,1.654-0.264,2.418-0.557    
 c10.62-2.301,18.149-1.801,21.846,1.486c0.88,0.782,1.554,1.732,2.063,2.803c-1.393,2.864-3.258,5.949-4.473,7.959    
 c-3.046,5.034-5.674,9.383-5.877,13.05c-0.124,2.305,1.642,4.277,3.945,4.402c0.08,0.006,0.157,0.008,0.231,0.008    
 c2.206,0,4.051-1.726,4.172-3.952c0.061-1.111,1.387-3.606,2.843-6.103c-0.058,0.47-0.116,0.933-0.173,1.381    
 c-0.214,1.7-0.418,3.302-0.491,4.67c-0.126,2.305,1.641,4.275,3.944,4.401c0.079,0.006,0.155,0.006,0.232,0.006    
 c2.204,0,4.049-1.725,4.171-3.95c0.058-1.072,0.234-2.464,0.438-4.078c0.626-4.959,1.448-11.517-0.021-17.464    
 c1.308-3.599,1.738-7.068,0.424-10.121c0.602,0.309,1.119,0.582,1.506,0.788c0.502,0.267,1.041,0.392,1.57,0.392    
 c1.196,0,2.354-0.64,2.955-1.77C76.546,55.743,75.931,53.717,74.302,52.848z M51.131,40.714c1.949,4.701,3.79,8.22,5.718,10.442    
 c-3.832-0.239-8.526,0.078-14.199,0.954C44.212,46.72,48.501,42.738,51.131,40.714z"/></g></g>
 <!-- <text x="0" y="115" fill="#000000" font-size="5px" font-weight="bold" font-family="'Helvetica Neue', Helvetica, Arial-Unicode, Arial, Sans-serif">Created by James Fenton</text>
 <text x="0" y="120" fill="#000000" font-size="5px" font-weight="bold" font-family="'Helvetica Neue', Helvetica, Arial-Unicode, Arial, Sans-serif">from the Noun Project</text> -->
 </svg>